<svg version="1.1" xmlns="http://www.w3.org/2000/svg" viewBox="0 0 1470 230" width="2940" height="460">
  <!-- svg-source:excalidraw -->
  
  <defs>
    <style class="style-fonts">
      @font-face {
        font-family: "Virgil";
        src: url("https://unpkg.com/@excalidraw/excalidraw@undefined/dist/excalidraw-assets/Virgil.woff2");
      }
      @font-face {
        font-family: "Cascadia";
        src: url("https://unpkg.com/@excalidraw/excalidraw@undefined/dist/excalidraw-assets/Cascadia.woff2");
      }
      @font-face {
        font-family: "Assistant";
        src: url("https://unpkg.com/@excalidraw/excalidraw@undefined/dist/excalidraw-assets/Assistant-Regular.woff2");
      }
    </style>
    
  </defs>
  <rect x="0" y="0" width="1470" height="230" fill="#ffffff"></rect><g stroke-linecap="round" transform="translate(210 120) rotate(0 130 50)"><path d="M25 0 C67.94 0, 110.88 0, 235 0 C251.67 0, 260 8.33, 260 25 C260 39.06, 260 53.12, 260 75 C260 91.67, 251.67 100, 235 100 C159.95 100, 84.89 100, 25 100 C8.33 100, 0 91.67, 0 75 C0 60.81, 0 46.62, 0 25 C0 8.33, 8.33 0, 25 0" stroke="none" stroke-width="0" fill="#d0bfff"></path><path d="M25 0 C67.95 0, 110.89 0, 235 0 M25 0 C80.82 0, 136.64 0, 235 0 M235 0 C251.67 0, 260 8.33, 260 25 M235 0 C251.67 0, 260 8.33, 260 25 M260 25 C260 40.99, 260 56.98, 260 75 M260 25 C260 40.58, 260 56.16, 260 75 M260 75 C260 91.67, 251.67 100, 235 100 M260 75 C260 91.67, 251.67 100, 235 100 M235 100 C174.49 100, 113.98 100, 25 100 M235 100 C185.41 100, 135.82 100, 25 100 M25 100 C8.33 100, 0 91.67, 0 75 M25 100 C8.33 100, 0 91.67, 0 75 M0 75 C0 60.19, 0 45.39, 0 25 M0 75 C0 60.35, 0 45.69, 0 25 M0 25 C0 8.33, 8.33 0, 25 0 M0 25 C0 8.33, 8.33 0, 25 0" stroke="#1e1e1e" stroke-width="2" fill="none"></path></g><g transform="translate(245 135) rotate(0 95 34.5)"><text x="95" y="0" font-family="Segoe UI Emoji" font-size="16px" fill="#1e1e1e" text-anchor="middle" style="white-space: pre;" direction="ltr" dominant-baseline="text-before-edge">🧠 AgentCore Runtime</text><text x="95" y="23" font-family="Segoe UI Emoji" font-size="16px" fill="#1e1e1e" text-anchor="middle" style="white-space: pre;" direction="ltr" dominant-baseline="text-before-edge">Orchestrator Agent</text><text x="95" y="46" font-family="Segoe UI Emoji" font-size="16px" fill="#1e1e1e" text-anchor="middle" style="white-space: pre;" direction="ltr" dominant-baseline="text-before-edge">(LangGraph + Claude)</text></g><g stroke-linecap="round" transform="translate(580 130) rotate(0 100 40)"><path d="M20 0 C59.11 0, 98.22 0, 180 0 C193.33 0, 200 6.67, 200 20 C200 33.28, 200 46.55, 200 60 C200 73.33, 193.33 80, 180 80 C143.48 80, 106.96 80, 20 80 C6.67 80, 0 73.33, 0 60 C0 45.19, 0 30.38, 0 20 C0 6.67, 6.67 0, 20 0" stroke="none" stroke-width="0" fill="#ffec99"></path><path d="M20 0 C52.72 0, 85.44 0, 180 0 M20 0 C53.57 0, 87.14 0, 180 0 M180 0 C193.33 0, 200 6.67, 200 20 M180 0 C193.33 0, 200 6.67, 200 20 M200 20 C200 34.19, 200 48.39, 200 60 M200 20 C200 31.62, 200 43.25, 200 60 M200 60 C200 73.33, 193.33 80, 180 80 M200 60 C200 73.33, 193.33 80, 180 80 M180 80 C128.88 80, 77.76 80, 20 80 M180 80 C137.15 80, 94.31 80, 20 80 M20 80 C6.67 80, 0 73.33, 0 60 M20 80 C6.67 80, 0 73.33, 0 60 M0 60 C0 49.21, 0 38.42, 0 20 M0 60 C0 50.16, 0 40.33, 0 20 M0 20 C0 6.67, 6.67 0, 20 0 M0 20 C0 6.67, 6.67 0, 20 0" stroke="#1e1e1e" stroke-width="2" fill="none"></path></g><g transform="translate(610 140) rotate(0 70 30)"><text x="70" y="0" font-family="Segoe UI Emoji" font-size="14px" fill="#1e1e1e" text-anchor="middle" style="white-space: pre;" direction="ltr" dominant-baseline="text-before-edge">🔗 AgentCore</text><text x="70" y="20" font-family="Segoe UI Emoji" font-size="14px" fill="#1e1e1e" text-anchor="middle" style="white-space: pre;" direction="ltr" dominant-baseline="text-before-edge">Gateway</text><text x="70" y="40" font-family="Segoe UI Emoji" font-size="14px" fill="#1e1e1e" text-anchor="middle" style="white-space: pre;" direction="ltr" dominant-baseline="text-before-edge">(JWT + Tool Discovery)</text></g><g stroke-linecap="round" transform="translate(890 120) rotate(0 130 50)"><path d="M25 0 C84.73 0, 144.45 0, 235 0 C251.67 0, 260 8.33, 260 25 C260 44.13, 260 63.26, 260 75 C260 91.67, 251.67 100, 235 100 C172.19 100, 109.38 100, 25 100 C8.33 100, 0 91.67, 0 75 C0 62.16, 0 49.32, 0 25 C0 8.33, 8.33 0, 25 0" stroke="none" stroke-width="0" fill="#d0bfff"></path><path d="M25 0 C67.95 0, 110.9 0, 235 0 M25 0 C99.29 0, 173.59 0, 235 0 M235 0 C251.67 0, 260 8.33, 260 25 M235 0 C251.67 0, 260 8.33, 260 25 M260 25 C260 44.49, 260 63.98, 260 75 M260 25 C260 38.48, 260 51.96, 260 75 M260 75 C260 91.67, 251.67 100, 235 100 M260 75 C260 91.67, 251.67 100, 235 100 M235 100 C161.32 100, 87.65 100, 25 100 M235 100 C172.12 100, 109.24 100, 25 100 M25 100 C8.33 100, 0 91.67, 0 75 M25 100 C8.33 100, 0 91.67, 0 75 M0 75 C0 62.83, 0 50.66, 0 25 M0 75 C0 55.06, 0 35.12, 0 25 M0 25 C0 8.33, 8.33 0, 25 0 M0 25 C0 8.33, 8.33 0, 25 0" stroke="#1e1e1e" stroke-width="2" fill="none"></path></g><g transform="translate(925 135) rotate(0 95 34.5)"><text x="95" y="0" font-family="Segoe UI Emoji" font-size="14px" fill="#1e1e1e" text-anchor="middle" style="white-space: pre;" direction="ltr" dominant-baseline="text-before-edge">🔷 AgentCore Runtime</text><text x="95" y="23" font-family="Segoe UI Emoji" font-size="14px" fill="#1e1e1e" text-anchor="middle" style="white-space: pre;" direction="ltr" dominant-baseline="text-before-edge">Neo4j MCP Server</text><text x="95" y="46" font-family="Segoe UI Emoji" font-size="14px" fill="#1e1e1e" text-anchor="middle" style="white-space: pre;" direction="ltr" dominant-baseline="text-before-edge">(get-schema, read-cypher)</text></g><g stroke-linecap="round" transform="translate(1260 128) rotate(0 100 42)"><path d="M21 0 C72.25 0, 123.5 0, 179 0 C193 0, 200 7, 200 21 C200 30.8, 200 40.6, 200 63 C200 77, 193 84, 179 84 C120.55 84, 62.1 84, 21 84 C7 84, 0 77, 0 63 C0 48.58, 0 34.17, 0 21 C0 7, 7 0, 21 0" stroke="none" stroke-width="0" fill="#b2f2bb"></path><path d="M21 0 C53.32 0, 85.63 0, 179 0 M21 0 C68.05 0, 115.1 0, 179 0 M179 0 C193 0, 200 7, 200 21 M179 0 C193 0, 200 7, 200 21 M200 21 C200 30.44, 200 39.89, 200 63 M200 21 C200 31.44, 200 41.89, 200 63 M200 63 C200 77, 193 84, 179 84 M200 63 C200 77, 193 84, 179 84 M179 84 C118.61 84, 58.23 84, 21 84 M179 84 C126.69 84, 74.38 84, 21 84 M21 84 C7 84, 0 77, 0 63 M21 84 C7 84, 0 77, 0 63 M0 63 C0 53.89, 0 44.77, 0 21 M0 63 C0 48.23, 0 33.47, 0 21 M0 21 C0 7, 7 0, 21 0 M0 21 C0 7, 7 0, 21 0" stroke="#1e1e1e" stroke-width="3" fill="none"></path></g><g transform="translate(1290 143) rotate(0 70 27)"><text x="70" y="0" font-family="Segoe UI Emoji" font-size="14px" fill="#1e1e1e" text-anchor="middle" style="white-space: pre;" direction="ltr" dominant-baseline="text-before-edge">🔷 Neo4j Aura</text><text x="70" y="18" font-family="Segoe UI Emoji" font-size="14px" fill="#1e1e1e" text-anchor="middle" style="white-space: pre;" direction="ltr" dominant-baseline="text-before-edge">Aircraft Digital</text><text x="70" y="36" font-family="Segoe UI Emoji" font-size="14px" fill="#1e1e1e" text-anchor="middle" style="white-space: pre;" direction="ltr" dominant-baseline="text-before-edge">Twin Graph</text></g><g stroke-linecap="round"><g transform="translate(470 170) rotate(0 55 0)"><path d="M0 0 C18.33 0, 91.67 0, 110 0 M0 0 C18.33 0, 91.67 0, 110 0" stroke="#1e1e1e" stroke-width="2" fill="none"></path></g><g transform="translate(470 170) rotate(0 55 0)"><path d="M81.81 10.26 C87.58 8.16, 93.34 6.06, 110 0 M81.81 10.26 C88.62 7.78, 95.44 5.3, 110 0" stroke="#1e1e1e" stroke-width="2" fill="none"></path></g><g transform="translate(470 170) rotate(0 55 0)"><path d="M81.81 -10.26 C87.58 -8.16, 93.34 -6.06, 110 0 M81.81 -10.26 C88.62 -7.78, 95.44 -5.3, 110 0" stroke="#1e1e1e" stroke-width="2" fill="none"></path></g></g><mask></mask><g stroke-linecap="round"><g transform="translate(780 170) rotate(0 55 0)"><path d="M0 0 C18.33 0, 91.67 0, 110 0 M0 0 C18.33 0, 91.67 0, 110 0" stroke="#1e1e1e" stroke-width="2" fill="none"></path></g><g transform="translate(780 170) rotate(0 55 0)"><path d="M81.81 10.26 C87.58 8.16, 93.34 6.06, 110 0 M81.81 10.26 C90.65 7.04, 99.5 3.82, 110 0" stroke="#1e1e1e" stroke-width="2" fill="none"></path></g><g transform="translate(780 170) rotate(0 55 0)"><path d="M81.81 -10.26 C87.58 -8.16, 93.34 -6.06, 110 0 M81.81 -10.26 C90.65 -7.04, 99.5 -3.82, 110 0" stroke="#1e1e1e" stroke-width="2" fill="none"></path></g></g><mask></mask><g stroke-linecap="round"><g transform="translate(1150 170) rotate(0 55 0)"><path d="M0 0 C18.33 0, 91.67 0, 110 0 M0 0 C18.33 0, 91.67 0, 110 0" stroke="#1e1e1e" stroke-width="2" fill="none"></path></g><g transform="translate(1150 170) rotate(0 55 0)"><path d="M81.81 10.26 C87.58 8.16, 93.34 6.06, 110 0 M81.81 10.26 C92.68 6.3, 103.56 2.34, 110 0" stroke="#1e1e1e" stroke-width="2" fill="none"></path></g><g transform="translate(1150 170) rotate(0 55 0)"><path d="M81.81 -10.26 C87.58 -8.16, 93.34 -6.06, 110 0 M81.81 -10.26 C92.68 -6.3, 103.56 -2.34, 110 0" stroke="#1e1e1e" stroke-width="2" fill="none"></path></g></g><mask></mask><g stroke-linecap="round" transform="translate(10 138) rotate(0 60 32)"><path d="M16 0 C35.74 0, 55.48 0, 104 0 C114.67 0, 120 5.33, 120 16 C120 24.32, 120 32.65, 120 48 C120 58.67, 114.67 64, 104 64 C82.26 64, 60.52 64, 16 64 C5.33 64, 0 58.67, 0 48 C0 36.5, 0 25, 0 16 C0 5.33, 5.33 0, 16 0" stroke="none" stroke-width="0" fill="#a5d8ff"></path><path d="M16 0 C34 0, 52 0, 104 0 M16 0 C38.68 0, 61.36 0, 104 0 M104 0 C114.67 0, 120 5.33, 120 16 M104 0 C114.67 0, 120 5.33, 120 16 M120 16 C120 25.99, 120 35.99, 120 48 M120 16 C120 28.68, 120 41.36, 120 48 M120 48 C120 58.67, 114.67 64, 104 64 M120 48 C120 58.67, 114.67 64, 104 64 M104 64 C81.07 64, 58.14 64, 16 64 M104 64 C85.5 64, 67.01 64, 16 64 M16 64 C5.33 64, 0 58.67, 0 48 M16 64 C5.33 64, 0 58.67, 0 48 M0 48 C0 39.97, 0 31.93, 0 16 M0 48 C0 37.32, 0 26.65, 0 16 M0 16 C0 5.33, 5.33 0, 16 0 M0 16 C0 5.33, 5.33 0, 16 0" stroke="#1e1e1e" stroke-width="2" fill="none"></path></g><g transform="translate(25 148) rotate(0 45 22)"><text x="45" y="0" font-family="Segoe UI Emoji" font-size="14px" fill="#1e1e1e" text-anchor="middle" style="white-space: pre;" direction="ltr" dominant-baseline="text-before-edge">👤 User / Client</text><text x="45" y="22" font-family="Segoe UI Emoji" font-size="14px" fill="#1e1e1e" text-anchor="middle" style="white-space: pre;" direction="ltr" dominant-baseline="text-before-edge">(boto3)</text></g><g stroke-linecap="round" transform="translate(595 10) rotate(0 87.5 27.5)"><path d="M13.75 0 C52.73 0, 91.71 0, 161.25 0 C170.42 0, 175 4.58, 175 13.75 C175 22.3, 175 30.85, 175 41.25 C175 50.42, 170.42 55, 161.25 55 C114.36 55, 67.47 55, 13.75 55 C4.58 55, 0 50.42, 0 41.25 C0 34.49, 0 27.72, 0 13.75 C0 4.58, 4.58 0, 13.75 0" stroke="none" stroke-width="0" fill="#ffc9c9"></path><path d="M13.75 0 C43.92 0, 74.09 0, 161.25 0 M13.75 0 C43.51 0, 73.26 0, 161.25 0 M161.25 0 C170.42 0, 175 4.58, 175 13.75 M161.25 0 C170.42 0, 175 4.58, 175 13.75 M175 13.75 C175 23.3, 175 32.85, 175 41.25 M175 13.75 C175 24.07, 175 34.39, 175 41.25 M175 41.25 C175 50.42, 170.42 55, 161.25 55 M175 41.25 C175 50.42, 170.42 55, 161.25 55 M161.25 55 C118.2 55, 75.14 55, 13.75 55 M161.25 55 C125.58 55, 89.91 55, 13.75 55 M13.75 55 C4.58 55, 0 50.42, 0 41.25 M13.75 55 C4.58 55, 0 50.42, 0 41.25 M0 41.25 C0 35.07, 0 28.89, 0 13.75 M0 41.25 C0 33.37, 0 25.49, 0 13.75 M0 13.75 C0 4.58, 4.58 0, 13.75 0 M0 13.75 C0 4.58, 4.58 0, 13.75 0" stroke="#1e1e1e" stroke-width="2" fill="none"></path></g><g transform="translate(610 20) rotate(0 72.5 17)"><text x="72.5" y="0" font-family="Segoe UI Emoji" font-size="14px" fill="#1e1e1e" text-anchor="middle" style="white-space: pre;" direction="ltr" dominant-baseline="text-before-edge">🔗 Amazon Cognito</text><text x="72.5" y="17" font-family="Segoe UI Emoji" font-size="14px" fill="#1e1e1e" text-anchor="middle" style="white-space: pre;" direction="ltr" dominant-baseline="text-before-edge">(OAuth2 M2M)</text></g><g stroke-linecap="round"><g transform="translate(130 170) rotate(0 40 0)"><path d="M0 0 C13.33 0, 66.67 0, 80 0 M0 0 C13.33 0, 66.67 0, 80 0" stroke="#1e1e1e" stroke-width="2" fill="none"></path></g><g transform="translate(130 170) rotate(0 40 0)"><path d="M51.81 10.26 C57.58 8.16, 63.34 6.06, 80 0 M51.81 10.26 C61.56 6.71, 71.3 3.17, 80 0" stroke="#1e1e1e" stroke-width="2" fill="none"></path></g><g transform="translate(130 170) rotate(0 40 0)"><path d="M51.81 -10.26 C57.58 -8.16, 63.34 -6.06, 80 0 M51.81 -10.26 C61.56 -6.71, 71.3 -3.17, 80 0" stroke="#1e1e1e" stroke-width="2" fill="none"></path></g></g><mask></mask><g stroke-linecap="round"><g transform="translate(340 120) rotate(0 170 -27.5)"><path d="M0 0 C56.67 -9.17, 283.33 -45.83, 340 -55" stroke="#e03131" stroke-width="2.5" fill="none" stroke-dasharray="8 10"></path></g><g transform="translate(340 120) rotate(0 170 -27.5)"><path d="M313.81 -40.37 C319.17 -43.36, 324.53 -46.36, 340 -55" stroke="#e03131" stroke-width="2.5" fill="none"></path></g><g transform="translate(340 120) rotate(0 170 -27.5)"><path d="M310.53 -60.63 C316.56 -59.48, 322.59 -58.32, 340 -55" stroke="#e03131" stroke-width="2.5" fill="none"></path></g></g><mask></mask><g transform="translate(450 75) rotate(0 45 8.5)"><text x="45" y="0" font-family="Segoe UI Emoji" font-size="12px" fill="#e03131" text-anchor="middle" style="white-space: pre;" direction="ltr" dominant-baseline="text-before-edge">OAuth2 token</text></g><g stroke-linecap="round"><g transform="translate(680 130) rotate(0 1 -32.5)"><path d="M0 0 C0.33 -10.83, 1.67 -54.17, 2 -65" stroke="#e03131" stroke-width="2.5" fill="none" stroke-dasharray="8 10"></path></g><g transform="translate(680 130) rotate(0 1 -32.5)"><path d="M11.39 -36.51 C9.47 -42.34, 7.55 -48.17, 2 -65" stroke="#e03131" stroke-width="2.5" fill="none"></path></g><g transform="translate(680 130) rotate(0 1 -32.5)"><path d="M-9.12 -37.14 C-6.85 -42.84, -4.57 -48.54, 2 -65" stroke="#e03131" stroke-width="2.5" fill="none"></path></g></g><mask></mask><g transform="translate(690 80) rotate(0 50 8.5)"><text x="50" y="0" font-family="Segoe UI Emoji" font-size="12px" fill="#e03131" text-anchor="middle" style="white-space: pre;" direction="ltr" dominant-baseline="text-before-edge">JWT validation</text></g></svg>